<svg width="780" height="500" viewBox="0 0 780 500" fill="none" xmlns="http://www.w3.org/2000/svg">
<rect width="780" height="500" rx="40" fill="white"/>
<rect x="1" y="1" width="778" height="498" rx="39" stroke="#D9D9D9" stroke-width="2"/>
<g transform="translate(270,100) scale(0.8)">
  <path d="M196.8 175.1c-15.4 0-29.9-6-40.8-16.9L112.4 115l-43.6 43.2c-10.9 10.9-25.4 16.9-40.8 16.9H15.9L63 222.2c22.4 22.4 58.7 22.4 81.1 0l47.1-47.1h5.6z" fill="#32BCAD"/>
  <path d="M28 122.7c15.4 0 29.9 6 40.8 16.9l43.6 43.2 43.6-43.2c10.9-10.9 25.4-16.9 40.8-16.9h12.1L162 75.6c-22.4-22.4-58.7-22.4-81.1 0L33.8 122.7H28z" fill="#32BCAD"/>
  <path d="M246.3 128.8l-33.2-33.2c-1.7 1.2-3.3 2.6-4.8 4.1l-44.7 44.7c-3.8 3.8-10 3.8-13.8 0l-44.7-44.7c-1.5-1.5-3.1-2.9-4.8-4.1l-33.2 33.2c-22.4 22.4-22.4 58.7 0 81.1l33.2 33.2c1.7-1.2 3.3-2.6 4.8-4.1l44.7-44.7c3.8-3.8 10-3.8 13.8 0l44.7 44.7c1.5 1.5 3.1 2.9 4.8 4.1l33.2-33.2c22.4-22.4 22.4-58.7 0-81.1z" fill="#32BCAD"/>
</g>
</svg>
